<?xml version="1.0" standalone="no"?>
   <!DOCTYPE svg PUBLIC "-//W3C//DTD SVG 1.1//EN" 
   "http://www.w3.org/Graphics/SVG/1.1/DTD/svg11.dtd"><svg id="svg" version="1.1" width="2058" height="3519" xmlns="http://www.w3.org/2000/svg"><path d="M256.411 300.750 C 257.833 308.987,282.298 511.973,357.199 1137.000 C 363.823 1192.275,373.886 1274.625,379.561 1320.000 C 385.235 1365.375,392.036 1420.050,394.673 1441.500 C 397.310 1462.950,401.365 1495.350,403.684 1513.500 C 406.003 1531.650,408.631 1553.250,409.524 1561.500 C 410.417 1569.750,412.449 1586.625,414.040 1599.000 C 415.631 1611.375,421.019 1655.250,426.013 1696.500 C 431.007 1737.750,437.049 1787.025,439.439 1806.000 C 453.069 1914.177,461.260 1980.018,465.006 2011.500 C 466.773 2026.350,470.488 2055.193,473.261 2075.594 L 478.303 2112.689 470.169 2119.686 C 465.695 2123.534,460.339 2127.767,458.267 2129.091 C 456.195 2130.416,450.940 2136.669,446.589 2142.987 L 438.679 2154.474 453.304 2192.487 C 461.348 2213.394,467.945 2234.680,467.965 2239.789 C 468.001 2249.463,475.741 2268.000,479.743 2268.000 C 481.010 2268.000,485.539 2274.417,489.808 2282.261 C 496.604 2294.747,498.152 2303.245,502.241 2350.511 C 504.810 2380.205,508.263 2418.675,509.914 2436.000 C 511.565 2453.325,514.305 2484.375,516.003 2505.000 C 517.701 2525.625,521.060 2564.775,523.468 2592.000 C 525.876 2619.225,529.326 2658.407,531.134 2679.072 L 534.423 2716.643 526.747 2730.072 C 522.526 2737.457,519.056 2745.759,519.036 2748.520 C 519.016 2751.281,515.776 2757.372,511.834 2762.055 C 507.893 2766.739,502.955 2776.293,500.860 2783.286 C 497.511 2794.462,495.992 2796.000,488.298 2796.000 C 479.323 2796.000,477.627 2797.491,457.591 2823.000 C 428.943 2859.472,424.195 2872.181,432.933 2889.000 C 435.076 2893.125,437.169 2903.250,437.583 2911.500 C 437.997 2919.750,439.560 2927.732,441.055 2929.237 C 442.551 2930.743,458.058 2932.610,475.517 2933.386 L 507.259 2934.798 512.048 2944.149 C 514.682 2949.292,518.336 2954.492,520.169 2955.704 C 526.240 2959.721,535.996 2958.082,541.371 2952.142 C 545.185 2947.928,549.038 2946.758,555.105 2947.971 C 561.566 2949.263,564.463 2948.177,567.491 2943.329 C 569.665 2939.848,572.600 2937.000,574.015 2937.000 C 575.429 2937.000,576.165 2962.313,575.649 2993.250 C 574.981 3033.342,575.759 3051.382,578.356 3056.053 C 580.360 3059.657,582.000 3069.116,582.000 3077.073 C 582.000 3085.029,583.305 3096.091,584.901 3101.653 C 586.496 3107.216,587.954 3134.978,588.141 3163.346 C 588.328 3191.714,589.399 3216.410,590.521 3218.225 C 591.642 3220.039,596.128 3222.420,600.490 3223.515 C 611.312 3226.231,614.483 3219.594,611.803 3199.839 C 610.624 3191.154,608.678 3155.124,607.479 3119.774 C 606.279 3084.423,604.329 3054.150,603.144 3052.500 C 594.722 3040.765,590.274 2940.379,598.147 2939.719 C 607.708 2938.916,649.321 2939.657,765.000 2942.690 C 835.125 2944.529,935.190 2946.852,987.368 2947.853 C 1039.545 2948.854,1083.708 2950.583,1085.507 2951.695 C 1091.014 2955.099,1098.704 3008.006,1096.479 3027.177 C 1095.196 3038.231,1095.723 3046.746,1097.947 3050.902 C 1100.586 3055.832,1100.566 3058.408,1097.864 3061.664 C 1095.562 3064.438,1095.125 3069.388,1096.624 3075.723 C 1097.896 3081.100,1098.775 3096.443,1098.577 3109.818 C 1098.234 3133.031,1098.560 3134.292,1105.750 3137.568 C 1115.376 3141.954,1166.136 3142.035,1178.616 3137.684 C 1195.586 3131.769,1198.693 3117.038,1186.122 3102.098 C 1181.707 3096.851,1175.853 3083.626,1172.803 3072.008 C 1169.810 3060.607,1165.929 3048.605,1164.180 3045.337 C 1162.431 3042.069,1161.000 3032.151,1161.000 3023.297 C 1161.000 3014.444,1159.573 3005.773,1157.828 3004.028 C 1156.084 3002.284,1155.071 2993.587,1155.578 2984.703 L 1156.500 2968.549 1170.318 2966.585 C 1177.917 2965.505,1189.775 2961.061,1196.667 2956.710 C 1208.483 2949.251,1211.037 2948.848,1241.350 2949.650 C 1268.106 2950.357,1273.327 2951.255,1272.467 2955.000 C 1271.899 2957.475,1271.531 2967.253,1271.648 2976.729 C 1271.800 2989.036,1269.214 3001.033,1262.592 3018.729 C 1257.495 3032.353,1252.670 3049.178,1251.870 3056.117 C 1250.518 3067.854,1251.117 3069.161,1260.459 3074.856 C 1277.397 3085.182,1320.449 3082.446,1343.250 3069.594 C 1352.659 3064.290,1352.454 3048.352,1342.862 3039.340 C 1334.975 3031.931,1332.111 3017.817,1330.195 2976.914 C 1329.486 2961.769,1330.250 2951.581,1332.187 2950.385 C 1333.915 2949.316,1392.618 2947.773,1462.638 2946.954 L 1589.946 2945.467 1593.195 2953.983 C 1595.746 2960.670,1595.324 2965.799,1591.234 2977.856 C 1586.939 2990.519,1586.573 2996.045,1589.147 3009.356 C 1591.725 3022.691,1592.659 3024.305,1594.515 3018.630 C 1596.636 3012.146,1597.075 3012.043,1602.325 3016.794 C 1610.365 3024.070,1617.000 3017.587,1617.000 3002.456 C 1617.000 2995.346,1618.194 2991.384,1620.000 2992.500 C 1621.650 2993.520,1623.000 3000.253,1623.000 3007.463 C 1623.000 3021.566,1628.618 3030.000,1638.012 3030.000 C 1641.083 3030.000,1644.388 3027.505,1645.356 3024.455 C 1646.323 3021.406,1650.392 3017.418,1654.396 3015.593 C 1662.771 3011.777,1666.640 2997.340,1664.188 2979.055 C 1662.809 2968.775,1663.428 2967.292,1669.764 2965.702 C 1673.684 2964.718,1678.975 2959.883,1681.522 2954.957 L 1686.154 2946.000 1726.112 2946.000 C 1770.237 2946.000,1770.471 2945.908,1779.557 2925.000 C 1799.547 2879.003,1800.800 2874.619,1799.018 2856.905 C 1798.055 2847.332,1796.630 2831.656,1795.851 2822.069 C 1793.736 2796.036,1793.668 2796.000,1746.864 2796.000 C 1708.632 2796.000,1706.159 2795.637,1700.836 2789.250 C 1697.000 2784.648,1695.695 2779.636,1696.736 2773.500 C 1698.958 2760.395,1687.115 2738.805,1674.156 2732.337 C 1665.322 2727.928,1663.729 2725.519,1663.248 2715.837 C 1662.716 2705.133,1659.786 2626.653,1657.449 2560.500 C 1656.866 2544.000,1655.455 2510.250,1654.313 2485.500 C 1651.168 2417.358,1650.762 2408.352,1648.489 2356.245 L 1646.385 2307.991 1669.628 2285.047 L 1692.871 2262.103 1690.848 2240.339 C 1689.062 2221.115,1687.654 2217.344,1678.789 2208.037 C 1673.269 2202.242,1667.816 2193.450,1666.673 2188.500 C 1663.057 2172.847,1656.448 2165.237,1648.258 2167.293 C 1641.012 2169.111,1640.999 2169.071,1640.660 2142.807 C 1640.473 2128.338,1639.957 2109.075,1639.513 2100.000 C 1639.069 2090.925,1637.822 2057.850,1636.742 2026.500 C 1634.857 1971.805,1633.663 1940.046,1630.539 1861.500 C 1629.201 1827.849,1628.010 1794.247,1624.476 1690.500 C 1622.717 1638.849,1620.341 1575.290,1618.533 1531.500 C 1617.784 1513.350,1616.441 1474.875,1615.548 1446.000 C 1613.519 1380.349,1611.316 1315.052,1609.427 1264.500 C 1605.594 1161.965,1604.957 1144.585,1603.544 1104.000 C 1602.711 1080.075,1601.311 1040.250,1600.432 1015.500 C 1598.732 967.576,1597.065 915.034,1594.628 832.500 C 1593.800 804.450,1592.383 759.900,1591.480 733.500 C 1590.576 707.100,1589.212 667.275,1588.448 645.000 C 1585.459 557.869,1583.964 512.653,1582.599 468.000 C 1581.429 429.722,1577.689 316.585,1576.917 296.112 C 1576.748 291.612,1574.470 290.870,1563.107 291.612 L 1549.500 292.500 1550.316 323.643 C 1550.765 340.772,1551.857 355.959,1552.743 357.393 C 1553.629 358.827,1553.068 360.000,1551.496 360.000 C 1549.765 360.000,1549.588 364.436,1551.048 371.250 C 1552.373 377.438,1554.334 410.175,1555.404 444.000 C 1556.475 477.825,1557.872 516.300,1558.508 529.500 C 1559.144 542.700,1560.452 573.750,1561.415 598.500 C 1562.378 623.250,1563.765 656.325,1564.498 672.000 C 1566.352 711.672,1568.666 775.059,1570.522 837.000 C 1572.008 886.577,1573.273 920.496,1576.509 997.500 C 1577.271 1015.650,1578.586 1049.400,1579.430 1072.500 C 1580.274 1095.600,1581.681 1134.075,1582.556 1158.000 C 1583.432 1181.925,1584.754 1212.300,1585.493 1225.500 C 1586.233 1238.700,1587.592 1274.475,1588.514 1305.000 C 1589.436 1335.525,1590.799 1374.000,1591.543 1390.500 C 1592.287 1407.000,1593.630 1440.750,1594.527 1465.500 C 1595.425 1490.250,1596.769 1526.025,1597.514 1545.000 C 1598.259 1563.975,1599.611 1599.075,1600.518 1623.000 C 1601.425 1646.925,1602.782 1680.675,1603.532 1698.000 C 1604.283 1715.325,1605.632 1750.425,1606.530 1776.000 C 1607.429 1801.575,1608.768 1835.325,1609.506 1851.000 C 1610.244 1866.675,1611.603 1898.400,1612.526 1921.500 C 1613.448 1944.600,1614.786 1974.300,1615.498 1987.500 C 1616.210 2000.700,1617.590 2037.150,1618.565 2068.500 C 1619.539 2099.850,1620.908 2133.341,1621.606 2142.924 C 1622.856 2160.082,1622.673 2160.559,1609.682 2174.116 C 1593.923 2190.563,1589.727 2203.973,1587.814 2244.000 C 1586.156 2278.703,1580.666 2292.838,1555.844 2326.318 C 1528.564 2363.114,1510.611 2380.622,1474.534 2405.609 C 1456.402 2418.166,1437.354 2432.141,1432.204 2436.662 L 1422.841 2444.883 1411.083 2430.692 C 1404.616 2422.886,1397.170 2413.125,1394.537 2409.000 C 1389.345 2400.867,1377.521 2388.905,1351.538 2365.500 C 1327.276 2343.646,1318.638 2334.291,1307.217 2317.500 C 1288.606 2290.138,1252.976 2262.945,1202.309 2237.436 C 1177.114 2224.751,1151.100 2213.276,1144.500 2211.936 L 1132.500 2209.500 1131.588 2193.605 C 1130.761 2179.187,1131.528 2176.914,1139.838 2169.151 C 1144.877 2164.444,1149.000 2159.278,1149.000 2157.671 C 1149.000 2156.065,1152.713 2154.003,1157.250 2153.089 C 1169.179 2150.688,1176.648 2136.611,1174.181 2121.179 C 1173.110 2114.480,1171.056 2109.000,1169.617 2109.000 C 1168.177 2109.000,1167.000 2107.619,1167.000 2105.931 C 1167.000 2104.243,1170.250 2104.991,1174.222 2107.594 C 1183.775 2113.853,1188.042 2107.708,1179.838 2099.505 C 1174.282 2093.949,1174.219 2093.036,1178.724 2083.405 C 1181.351 2077.790,1185.041 2073.151,1186.925 2073.098 C 1191.190 2072.976,1194.954 2058.970,1192.004 2054.198 C 1190.806 2052.258,1190.137 2046.583,1190.518 2041.586 C 1191.159 2033.172,1189.210 2026.893,1181.201 2011.572 C 1179.496 2008.311,1177.524 1996.161,1176.817 1984.572 C 1175.436 1961.914,1163.691 1932.080,1151.979 1921.481 C 1148.586 1918.410,1141.690 1908.697,1136.655 1899.897 C 1131.620 1891.096,1123.898 1882.033,1119.497 1879.757 C 1110.140 1874.919,1080.079 1870.342,1065.000 1871.461 C 1053.561 1872.310,1032.000 1880.577,1032.000 1884.114 C 1032.000 1885.325,1027.275 1888.559,1021.500 1891.299 C 1015.725 1894.039,1011.000 1898.243,1011.000 1900.641 C 1011.000 1905.573,1006.032 1906.595,1004.493 1901.980 C 1003.844 1900.033,1000.024 1900.267,993.743 1902.638 C 984.485 1906.132,980.560 1911.000,987.000 1911.000 C 988.650 1911.000,990.000 1912.350,990.000 1914.000 C 990.000 1915.650,988.010 1917.000,985.577 1917.000 C 983.144 1917.000,979.220 1920.713,976.857 1925.250 C 974.493 1929.788,968.046 1937.550,962.530 1942.500 C 949.921 1953.815,939.895 1974.131,935.693 1996.882 C 930.826 2023.236,931.949 2021.857,918.197 2018.366 C 911.489 2016.663,906.000 2014.229,906.000 2012.956 C 906.000 2011.683,903.713 2009.764,900.918 2008.692 C 896.475 2006.987,896.535 2007.514,901.400 2012.889 C 904.460 2016.270,906.178 2019.822,905.217 2020.783 C 903.150 2022.850,885.000 2009.971,885.000 2006.436 C 885.000 2005.096,883.441 2004.000,881.535 2004.000 C 876.154 2004.000,888.044 2015.975,902.837 2025.454 C 918.170 2035.278,914.428 2036.891,896.968 2027.984 C 888.940 2023.888,885.663 2023.237,886.702 2025.945 C 887.542 2028.132,891.889 2031.461,896.364 2033.342 C 904.205 2036.639,904.120 2036.702,894.000 2035.071 C 888.225 2034.140,875.217 2029.031,865.093 2023.718 C 852.834 2017.283,846.888 2015.432,847.290 2018.175 C 847.623 2020.440,852.194 2024.907,857.447 2028.103 C 862.701 2031.298,867.000 2035.077,867.000 2036.500 C 867.000 2037.924,872.438 2041.541,879.085 2044.538 C 885.732 2047.536,890.458 2051.453,889.587 2053.244 C 888.716 2055.035,887.171 2058.863,886.152 2061.750 C 883.870 2068.220,881.216 2068.300,869.521 2062.252 C 864.450 2059.630,861.289 2059.041,862.461 2060.937 C 863.628 2062.825,868.164 2065.738,872.541 2067.409 C 880.245 2070.351,880.313 2070.585,874.677 2074.724 C 871.474 2077.076,867.086 2079.000,864.927 2079.000 C 862.767 2079.000,861.000 2080.350,861.000 2082.000 C 861.000 2083.650,863.295 2085.000,866.100 2085.000 C 870.067 2085.000,870.400 2085.800,867.600 2088.600 C 861.560 2094.640,863.587 2097.399,870.750 2092.887 C 879.547 2087.346,912.000 2083.352,912.000 2087.810 C 912.000 2089.593,907.950 2096.643,903.000 2103.476 C 893.448 2116.663,891.833 2126.345,897.440 2136.821 C 899.331 2140.356,901.019 2145.908,901.190 2149.160 C 901.614 2157.250,914.999 2160.956,955.500 2164.195 C 979.321 2166.100,1005.000 2172.624,1005.000 2176.771 C 1005.000 2184.544,989.335 2198.948,977.383 2202.166 C 970.685 2203.970,942.771 2206.465,915.352 2207.711 L 865.500 2209.977 834.688 2225.714 C 817.741 2234.370,799.516 2245.546,794.188 2250.551 C 788.859 2255.555,777.750 2264.079,769.500 2269.492 C 761.250 2274.906,749.100 2283.678,742.500 2288.985 C 735.900 2294.293,719.700 2303.958,706.500 2310.465 C 693.300 2316.972,680.475 2324.754,678.000 2327.759 C 671.858 2335.216,641.582 2355.000,636.311 2355.000 C 633.963 2355.000,624.441 2347.913,615.151 2339.250 C 605.860 2330.588,590.888 2317.294,581.879 2309.710 C 553.820 2286.085,513.024 2226.523,513.006 2209.155 C 513.003 2205.665,515.604 2199.498,518.787 2195.452 C 524.945 2187.623,527.356 2160.336,523.325 2144.085 C 521.948 2138.534,523.068 2131.610,526.617 2123.741 C 529.575 2117.180,532.109 2106.117,532.248 2099.156 C 532.478 2087.589,531.855 2086.500,525.000 2086.500 C 519.311 2086.500,516.173 2089.216,512.003 2097.750 C 508.980 2103.938,505.363 2109.000,503.967 2109.000 C 499.931 2109.000,491.791 2099.765,493.455 2097.073 C 494.285 2095.730,493.722 2088.076,492.204 2080.065 C 490.686 2072.054,488.616 2056.050,487.603 2044.500 C 486.591 2032.950,485.118 2020.125,484.330 2016.000 C 482.938 2008.709,482.184 2002.418,478.576 1968.000 C 477.625 1958.925,476.276 1949.475,475.578 1947.000 C 474.879 1944.525,473.472 1931.759,472.449 1918.632 C 471.427 1905.505,470.056 1893.900,469.404 1892.845 C 468.751 1891.789,467.370 1880.929,466.333 1868.713 C 465.296 1856.496,462.612 1835.129,460.368 1821.231 C 458.123 1807.333,456.757 1795.183,457.332 1794.231 C 457.907 1793.279,457.174 1785.075,455.702 1776.000 C 453.236 1760.794,451.874 1749.870,448.410 1717.500 C 447.703 1710.900,445.801 1696.050,444.183 1684.500 C 440.198 1656.054,435.008 1612.772,433.391 1594.500 C 432.661 1586.250,430.685 1570.050,429.001 1558.500 C 427.316 1546.950,425.788 1533.450,425.604 1528.500 C 425.421 1523.550,424.064 1511.949,422.588 1502.719 C 421.113 1493.490,419.298 1479.315,418.555 1471.219 C 415.948 1442.813,413.802 1426.379,410.953 1413.000 C 409.372 1405.575,403.944 1365.075,398.889 1323.000 C 366.383 1052.386,273.368 305.825,271.152 297.750 C 269.880 293.111,267.021 291.000,262.014 291.000 C 255.449 291.000,254.895 291.964,256.411 300.750 M897.000 2059.323 C 897.000 2060.051,895.650 2061.480,894.000 2062.500 C 892.350 2063.520,891.000 2062.924,891.000 2061.177 C 891.000 2059.430,892.350 2058.000,894.000 2058.000 C 895.650 2058.000,897.000 2058.595,897.000 2059.323 M903.281 2130.919 C 900.906 2133.294,900.000 2132.515,900.000 2128.100 C 900.000 2120.169,904.195 2115.959,905.531 2122.550 C 906.099 2125.348,905.086 2129.114,903.281 2130.919 M1629.173 2354.250 C 1629.268 2363.738,1629.800 2376.225,1630.356 2382.000 C 1630.911 2387.775,1632.227 2412.075,1633.280 2436.000 C 1634.334 2459.925,1635.809 2491.650,1636.558 2506.500 C 1638.563 2546.205,1640.566 2593.480,1642.469 2646.000 C 1643.396 2671.575,1644.909 2701.001,1645.831 2711.392 L 1647.508 2730.283 1636.004 2734.859 C 1616.219 2742.729,1611.154 2754.590,1614.543 2785.117 C 1615.438 2793.178,1614.531 2793.979,1600.500 2797.513 C 1590.354 2800.069,1548.612 2801.766,1471.500 2802.758 L 1357.500 2804.226 1358.569 2757.363 C 1359.597 2712.335,1357.894 2693.995,1346.858 2631.250 C 1345.286 2622.312,1344.000 2610.040,1344.000 2603.979 C 1344.000 2597.633,1340.014 2584.982,1334.604 2574.155 C 1326.907 2558.751,1322.974 2554.338,1312.854 2549.742 C 1293.626 2541.010,1263.177 2543.768,1250.067 2555.429 C 1245.353 2559.621,1244.272 2559.681,1241.904 2555.881 C 1236.724 2547.565,1235.277 2525.581,1238.335 2501.628 C 1241.726 2475.068,1243.824 2470.622,1248.767 2479.525 C 1250.591 2482.811,1258.528 2492.250,1266.403 2500.500 C 1281.771 2516.598,1279.591 2516.310,1298.303 2504.714 C 1302.686 2501.997,1310.366 2505.726,1342.553 2526.197 C 1390.666 2556.797,1410.255 2566.684,1429.805 2570.237 C 1448.509 2573.637,1455.289 2571.317,1464.158 2558.484 C 1467.953 2552.993,1477.770 2541.750,1485.974 2533.500 C 1515.199 2504.110,1554.103 2451.022,1583.804 2400.000 C 1602.572 2367.759,1623.369 2337.000,1626.399 2337.000 C 1627.830 2337.000,1629.078 2344.763,1629.173 2354.250 M526.631 2361.412 C 529.857 2371.576,574.489 2436.020,589.474 2452.150 L 603.084 2466.800 623.544 2465.336 C 637.541 2464.335,658.612 2458.825,690.252 2447.892 L 736.500 2431.912 756.987 2440.146 C 779.295 2449.112,779.914 2449.007,797.870 2433.206 C 802.276 2429.329,808.305 2427.079,812.862 2427.611 C 820.239 2428.471,820.590 2429.512,823.804 2460.000 C 825.631 2477.325,829.375 2503.228,832.124 2517.562 C 837.355 2544.835,852.076 2633.774,858.003 2673.915 C 860.574 2691.324,860.591 2698.378,858.072 2701.414 C 853.332 2707.125,849.053 2752.905,851.837 2768.118 C 853.218 2775.663,858.060 2785.193,863.883 2791.825 C 871.174 2800.129,872.600 2803.406,869.560 2804.869 C 867.327 2805.944,831.075 2805.870,789.000 2804.704 C 746.925 2803.537,691.236 2802.335,665.247 2802.031 C 610.993 2801.398,604.274 2800.179,598.669 2789.952 C 587.729 2769.992,576.000 2743.801,576.000 2739.331 C 576.000 2732.000,567.841 2721.589,558.183 2716.595 C 550.043 2712.386,549.653 2711.136,547.643 2682.862 C 545.484 2652.490,544.308 2638.193,541.650 2610.000 C 540.794 2600.925,539.356 2585.400,538.455 2575.500 C 537.553 2565.600,536.260 2551.425,535.581 2544.000 C 534.903 2536.575,533.506 2517.000,532.478 2500.500 C 531.450 2484.000,530.091 2468.475,529.459 2466.000 C 528.826 2463.525,527.542 2450.700,526.605 2437.500 C 525.668 2424.300,524.221 2404.050,523.390 2392.500 C 522.560 2380.950,521.125 2367.788,520.202 2363.250 C 518.224 2353.527,523.637 2351.980,526.631 2361.412 M1631.454 2974.500 C 1627.808 2982.503,1623.000 2984.550,1623.000 2978.100 C 1623.000 2973.811,1628.851 2967.000,1632.536 2967.000 C 1633.820 2967.000,1633.334 2970.375,1631.454 2974.500 " stroke="none" fill="black" fill-rule="evenodd"/></svg>